<svg width="426" height="354" viewBox="0 0 426 354" fill="none" xmlns="http://www.w3.org/2000/svg">
<g filter="url(#filter0_d_44_296)">
<rect x="65" y="18" width="296" height="224" rx="14" fill="white"/>
</g>
<path d="M219.424 95.504H222.448V97.216H219.424V100.224H217.712V97.216H214.688V95.504H217.712V92.464H219.424V95.504ZM229.764 102H227.348V95.392C227.348 95.2107 227.348 94.9867 227.348 94.72C227.359 94.4533 227.37 94.176 227.38 93.888C227.391 93.6 227.402 93.344 227.412 93.12C227.359 93.184 227.242 93.3013 227.06 93.472C226.89 93.632 226.73 93.776 226.58 93.904L225.268 94.96L224.1 93.504L227.78 90.576H229.764V102ZM237.113 94.704C237.806 94.704 238.425 94.8373 238.969 95.104C239.513 95.3707 239.939 95.76 240.249 96.272C240.569 96.784 240.729 97.4187 240.729 98.176C240.729 98.9973 240.558 99.7067 240.217 100.304C239.875 100.901 239.363 101.36 238.681 101.68C238.009 102 237.171 102.16 236.169 102.16C235.571 102.16 235.006 102.107 234.473 102C233.95 101.893 233.491 101.739 233.097 101.536V99.456C233.491 99.6587 233.966 99.8347 234.521 99.984C235.075 100.123 235.598 100.192 236.089 100.192C236.569 100.192 236.969 100.128 237.289 100C237.619 99.872 237.87 99.6747 238.041 99.408C238.211 99.1413 238.297 98.8 238.297 98.384C238.297 97.8187 238.11 97.392 237.737 97.104C237.363 96.8053 236.787 96.656 236.009 96.656C235.71 96.656 235.401 96.688 235.081 96.752C234.761 96.8053 234.494 96.8587 234.281 96.912L233.321 96.4L233.753 90.576H239.945V92.624H235.865L235.657 94.864C235.838 94.832 236.03 94.8 236.233 94.768C236.446 94.7253 236.739 94.704 237.113 94.704ZM244.653 90.416C245.549 90.416 246.226 90.7307 246.685 91.36C247.154 91.9787 247.389 92.8533 247.389 93.984C247.389 95.1147 247.17 96 246.733 96.64C246.295 97.2693 245.602 97.584 244.653 97.584C244.066 97.584 243.57 97.44 243.165 97.152C242.77 96.864 242.471 96.4533 242.269 95.92C242.066 95.376 241.965 94.7307 241.965 93.984C241.965 92.8533 242.178 91.9787 242.605 91.36C243.031 90.7307 243.714 90.416 244.653 90.416ZM244.669 92.048C244.413 92.048 244.226 92.208 244.109 92.528C243.991 92.848 243.933 93.3387 243.933 94C243.933 94.6507 243.991 95.1413 244.109 95.472C244.226 95.8027 244.413 95.968 244.669 95.968C244.925 95.968 245.111 95.8027 245.229 95.472C245.357 95.1413 245.421 94.6507 245.421 94C245.421 93.3387 245.357 92.848 245.229 92.528C245.111 92.208 244.925 92.048 244.669 92.048ZM252.765 90.576L246.429 102H244.557L250.893 90.576H252.765ZM252.653 94.976C253.25 94.976 253.751 95.12 254.157 95.408C254.562 95.6853 254.866 96.0907 255.069 96.624C255.282 97.1467 255.389 97.7867 255.389 98.544C255.389 99.6747 255.17 100.56 254.733 101.2C254.295 101.829 253.602 102.144 252.653 102.144C252.066 102.144 251.57 102 251.165 101.712C250.77 101.424 250.471 101.013 250.269 100.48C250.066 99.936 249.965 99.2907 249.965 98.544C249.965 97.4133 250.178 96.5387 250.605 95.92C251.031 95.2907 251.714 94.976 252.653 94.976ZM252.669 96.608C252.413 96.608 252.226 96.768 252.109 97.088C251.991 97.408 251.933 97.8987 251.933 98.56C251.933 99.2107 251.991 99.7013 252.109 100.032C252.226 100.363 252.413 100.528 252.669 100.528C252.925 100.528 253.111 100.368 253.229 100.048C253.357 99.7173 253.421 99.2213 253.421 98.56C253.421 97.8987 253.357 97.408 253.229 97.088C253.111 96.768 252.925 96.608 252.669 96.608Z" fill="#313950"/>
<path d="M95.288 92.432C94.8293 92.432 94.4187 92.5227 94.056 92.704C93.704 92.8853 93.4053 93.1467 93.16 93.488C92.9147 93.8187 92.728 94.224 92.6 94.704C92.4827 95.184 92.424 95.7227 92.424 96.32C92.424 97.1307 92.52 97.824 92.712 98.4C92.9147 98.9653 93.2293 99.3973 93.656 99.696C94.0827 99.9947 94.6267 100.144 95.288 100.144C95.7573 100.144 96.2213 100.091 96.68 99.984C97.1493 99.8773 97.656 99.728 98.2 99.536V101.568C97.6987 101.771 97.2027 101.92 96.712 102.016C96.2213 102.112 95.672 102.16 95.064 102.16C93.8907 102.16 92.92 101.92 92.152 101.44C91.3947 100.949 90.8347 100.267 90.472 99.392C90.1093 98.5067 89.928 97.4773 89.928 96.304C89.928 95.44 90.0453 94.6507 90.28 93.936C90.5147 93.2107 90.856 92.5867 91.304 92.064C91.7627 91.5413 92.3227 91.136 92.984 90.848C93.656 90.56 94.424 90.416 95.288 90.416C95.8533 90.416 96.4187 90.4907 96.984 90.64C97.56 90.7787 98.1093 90.9707 98.632 91.216L97.848 93.184C97.4213 92.9813 96.9893 92.8053 96.552 92.656C96.1253 92.5067 95.704 92.432 95.288 92.432ZM108.372 97.616C108.372 98.3413 108.27 98.9867 108.068 99.552C107.876 100.117 107.593 100.597 107.22 100.992C106.857 101.376 106.414 101.669 105.892 101.872C105.369 102.064 104.777 102.16 104.116 102.16C103.508 102.16 102.942 102.064 102.42 101.872C101.908 101.669 101.465 101.376 101.092 100.992C100.718 100.597 100.425 100.117 100.212 99.552C100.009 98.9867 99.9075 98.3413 99.9075 97.616C99.9075 96.6453 100.078 95.8293 100.42 95.168C100.761 94.496 101.252 93.984 101.892 93.632C102.532 93.28 103.289 93.104 104.164 93.104C104.985 93.104 105.71 93.28 106.34 93.632C106.969 93.984 107.465 94.496 107.828 95.168C108.19 95.8293 108.372 96.6453 108.372 97.616ZM102.34 97.616C102.34 98.192 102.398 98.6773 102.516 99.072C102.644 99.456 102.841 99.7493 103.108 99.952C103.374 100.144 103.721 100.24 104.148 100.24C104.574 100.24 104.916 100.144 105.172 99.952C105.438 99.7493 105.63 99.456 105.748 99.072C105.876 98.6773 105.94 98.192 105.94 97.616C105.94 97.04 105.876 96.56 105.748 96.176C105.63 95.792 105.438 95.504 105.172 95.312C104.905 95.12 104.558 95.024 104.132 95.024C103.502 95.024 103.044 95.2427 102.756 95.68C102.478 96.1067 102.34 96.752 102.34 97.616ZM118.358 93.264V102H116.534L116.214 100.88H116.086C115.904 101.179 115.67 101.424 115.382 101.616C115.104 101.797 114.795 101.931 114.454 102.016C114.112 102.112 113.76 102.16 113.398 102.16C112.779 102.16 112.235 102.048 111.766 101.824C111.296 101.6 110.934 101.253 110.678 100.784C110.422 100.315 110.294 99.7067 110.294 98.96V93.264H112.678V98.368C112.678 98.9867 112.79 99.456 113.014 99.776C113.238 100.096 113.595 100.256 114.086 100.256C114.576 100.256 114.955 100.144 115.222 99.92C115.499 99.696 115.691 99.3707 115.798 98.944C115.915 98.5173 115.974 97.9947 115.974 97.376V93.264H118.358ZM125.737 93.104C125.855 93.104 125.993 93.1093 126.153 93.12C126.313 93.1307 126.441 93.1467 126.537 93.168L126.361 95.408C126.287 95.3867 126.175 95.3707 126.025 95.36C125.887 95.3387 125.764 95.328 125.657 95.328C125.348 95.328 125.049 95.3707 124.761 95.456C124.473 95.5307 124.212 95.6533 123.977 95.824C123.753 95.9947 123.572 96.224 123.433 96.512C123.305 96.7893 123.241 97.136 123.241 97.552V102H120.857V93.264H122.665L123.017 94.736H123.129C123.3 94.4373 123.513 94.1653 123.769 93.92C124.025 93.6747 124.319 93.4773 124.649 93.328C124.991 93.1787 125.353 93.104 125.737 93.104ZM134.219 99.408C134.219 99.9947 134.08 100.496 133.803 100.912C133.526 101.317 133.11 101.627 132.555 101.84C132 102.053 131.312 102.16 130.491 102.16C129.883 102.16 129.36 102.117 128.923 102.032C128.486 101.957 128.048 101.829 127.611 101.648V99.68C128.08 99.8933 128.587 100.069 129.131 100.208C129.675 100.347 130.155 100.416 130.571 100.416C131.04 100.416 131.371 100.347 131.563 100.208C131.766 100.069 131.867 99.888 131.867 99.664C131.867 99.5147 131.824 99.3813 131.739 99.264C131.664 99.1467 131.494 99.0133 131.227 98.864C130.96 98.7147 130.544 98.5227 129.979 98.288C129.435 98.0533 128.987 97.824 128.635 97.6C128.283 97.3653 128.022 97.088 127.851 96.768C127.68 96.4373 127.595 96.0267 127.595 95.536C127.595 94.7253 127.91 94.1173 128.539 93.712C129.168 93.3067 130.006 93.104 131.051 93.104C131.595 93.104 132.112 93.1573 132.603 93.264C133.094 93.3707 133.6 93.5467 134.123 93.792L133.403 95.504C133.115 95.376 132.838 95.264 132.571 95.168C132.304 95.072 132.043 94.9973 131.787 94.944C131.542 94.8907 131.286 94.864 131.019 94.864C130.667 94.864 130.4 94.912 130.219 95.008C130.048 95.104 129.963 95.248 129.963 95.44C129.963 95.5787 130.006 95.7067 130.091 95.824C130.187 95.9307 130.363 96.048 130.619 96.176C130.886 96.304 131.275 96.4747 131.787 96.688C132.288 96.8907 132.72 97.104 133.083 97.328C133.446 97.5413 133.723 97.8133 133.915 98.144C134.118 98.464 134.219 98.8853 134.219 99.408ZM139.676 93.104C140.487 93.104 141.18 93.2587 141.756 93.568C142.343 93.8773 142.796 94.3253 143.116 94.912C143.436 95.4987 143.596 96.2187 143.596 97.072V98.224H137.964C137.985 98.896 138.183 99.424 138.556 99.808C138.94 100.192 139.468 100.384 140.14 100.384C140.705 100.384 141.217 100.331 141.676 100.224C142.135 100.107 142.609 99.9307 143.1 99.696V101.536C142.673 101.749 142.22 101.904 141.74 102C141.271 102.107 140.7 102.16 140.028 102.16C139.153 102.16 138.38 102 137.708 101.68C137.036 101.349 136.508 100.853 136.124 100.192C135.74 99.5307 135.548 98.6987 135.548 97.696C135.548 96.672 135.719 95.824 136.06 95.152C136.412 94.4693 136.897 93.9573 137.516 93.616C138.135 93.2747 138.855 93.104 139.676 93.104ZM139.692 94.8C139.233 94.8 138.849 94.9493 138.54 95.248C138.241 95.5467 138.065 96.0107 138.012 96.64H141.356C141.356 96.288 141.292 95.9733 141.164 95.696C141.047 95.4187 140.865 95.2 140.62 95.04C140.375 94.88 140.065 94.8 139.692 94.8ZM98.184 121.616C98.184 122.341 98.0827 122.987 97.88 123.552C97.688 124.117 97.4053 124.597 97.032 124.992C96.6693 125.376 96.2267 125.669 95.704 125.872C95.1813 126.064 94.5893 126.16 93.928 126.16C93.32 126.16 92.7547 126.064 92.232 125.872C91.72 125.669 91.2773 125.376 90.904 124.992C90.5307 124.597 90.2373 124.117 90.024 123.552C89.8213 122.987 89.72 122.341 89.72 121.616C89.72 120.645 89.8907 119.829 90.232 119.168C90.5733 118.496 91.064 117.984 91.704 117.632C92.344 117.28 93.1013 117.104 93.976 117.104C94.7973 117.104 95.5227 117.28 96.152 117.632C96.7813 117.984 97.2773 118.496 97.64 119.168C98.0027 119.829 98.184 120.645 98.184 121.616ZM92.152 121.616C92.152 122.192 92.2107 122.677 92.328 123.072C92.456 123.456 92.6533 123.749 92.92 123.952C93.1867 124.144 93.5333 124.24 93.96 124.24C94.3867 124.24 94.728 124.144 94.984 123.952C95.2507 123.749 95.4427 123.456 95.56 123.072C95.688 122.677 95.752 122.192 95.752 121.616C95.752 121.04 95.688 120.56 95.56 120.176C95.4427 119.792 95.2507 119.504 94.984 119.312C94.7173 119.12 94.3707 119.024 93.944 119.024C93.3147 119.024 92.856 119.243 92.568 119.68C92.2907 120.107 92.152 120.752 92.152 121.616ZM101.922 126L98.5938 117.264H101.09L102.77 122.24C102.834 122.432 102.887 122.635 102.93 122.848C102.983 123.061 103.02 123.269 103.042 123.472C103.074 123.675 103.095 123.861 103.106 124.032H103.17C103.18 123.851 103.202 123.659 103.234 123.456C103.266 123.253 103.303 123.051 103.346 122.848C103.399 122.635 103.458 122.432 103.522 122.24L105.202 117.264H107.698L104.37 126H101.922ZM112.551 117.104C113.362 117.104 114.055 117.259 114.631 117.568C115.218 117.877 115.671 118.325 115.991 118.912C116.311 119.499 116.471 120.219 116.471 121.072V122.224H110.839C110.86 122.896 111.058 123.424 111.431 123.808C111.815 124.192 112.343 124.384 113.015 124.384C113.58 124.384 114.092 124.331 114.551 124.224C115.01 124.107 115.484 123.931 115.975 123.696V125.536C115.548 125.749 115.095 125.904 114.615 126C114.146 126.107 113.575 126.16 112.903 126.16C112.028 126.16 111.255 126 110.583 125.68C109.911 125.349 109.383 124.853 108.999 124.192C108.615 123.531 108.423 122.699 108.423 121.696C108.423 120.672 108.594 119.824 108.935 119.152C109.287 118.469 109.772 117.957 110.391 117.616C111.01 117.275 111.73 117.104 112.551 117.104ZM112.567 118.8C112.108 118.8 111.724 118.949 111.415 119.248C111.116 119.547 110.94 120.011 110.887 120.64H114.231C114.231 120.288 114.167 119.973 114.039 119.696C113.922 119.419 113.74 119.2 113.495 119.04C113.25 118.88 112.94 118.8 112.567 118.8ZM123.284 117.104C123.402 117.104 123.54 117.109 123.7 117.12C123.86 117.131 123.988 117.147 124.084 117.168L123.908 119.408C123.834 119.387 123.722 119.371 123.572 119.36C123.434 119.339 123.311 119.328 123.204 119.328C122.895 119.328 122.596 119.371 122.308 119.456C122.02 119.531 121.759 119.653 121.524 119.824C121.3 119.995 121.119 120.224 120.98 120.512C120.852 120.789 120.788 121.136 120.788 121.552V126H118.404V117.264H120.212L120.564 118.736H120.676C120.847 118.437 121.06 118.165 121.316 117.92C121.572 117.675 121.866 117.477 122.196 117.328C122.538 117.179 122.9 117.104 123.284 117.104ZM127.75 126L124.422 117.264H126.918L128.598 122.24C128.662 122.432 128.715 122.635 128.758 122.848C128.811 123.061 128.849 123.269 128.87 123.472C128.902 123.675 128.923 123.861 128.934 124.032H128.998C129.009 123.851 129.03 123.659 129.062 123.456C129.094 123.253 129.131 123.051 129.174 122.848C129.227 122.635 129.286 122.432 129.35 122.24L131.03 117.264H133.526L130.198 126H127.75ZM137.163 117.264V126H134.779V117.264H137.163ZM135.979 113.84C136.331 113.84 136.635 113.925 136.891 114.096C137.147 114.256 137.275 114.56 137.275 115.008C137.275 115.445 137.147 115.749 136.891 115.92C136.635 116.091 136.331 116.176 135.979 116.176C135.617 116.176 135.307 116.091 135.051 115.92C134.806 115.749 134.683 115.445 134.683 115.008C134.683 114.56 134.806 114.256 135.051 114.096C135.307 113.925 135.617 113.84 135.979 113.84ZM143.254 117.104C144.065 117.104 144.758 117.259 145.334 117.568C145.921 117.877 146.374 118.325 146.694 118.912C147.014 119.499 147.174 120.219 147.174 121.072V122.224H141.542C141.564 122.896 141.761 123.424 142.134 123.808C142.518 124.192 143.046 124.384 143.718 124.384C144.284 124.384 144.796 124.331 145.254 124.224C145.713 124.107 146.188 123.931 146.678 123.696V125.536C146.252 125.749 145.798 125.904 145.318 126C144.849 126.107 144.278 126.16 143.606 126.16C142.732 126.16 141.958 126 141.286 125.68C140.614 125.349 140.086 124.853 139.702 124.192C139.318 123.531 139.126 122.699 139.126 121.696C139.126 120.672 139.297 119.824 139.638 119.152C139.99 118.469 140.476 117.957 141.094 117.616C141.713 117.275 142.433 117.104 143.254 117.104ZM143.27 118.8C142.812 118.8 142.428 118.949 142.118 119.248C141.82 119.547 141.644 120.011 141.59 120.64H144.934C144.934 120.288 144.87 119.973 144.742 119.696C144.625 119.419 144.444 119.2 144.198 119.04C143.953 118.88 143.644 118.8 143.27 118.8ZM155.307 122.944C155.264 122.763 155.2 122.496 155.115 122.144C155.04 121.781 154.955 121.397 154.859 120.992C154.763 120.576 154.672 120.197 154.587 119.856C154.502 119.504 154.443 119.248 154.411 119.088H154.347C154.315 119.248 154.256 119.504 154.171 119.856C154.096 120.197 154.011 120.576 153.915 120.992C153.819 121.397 153.728 121.781 153.643 122.144C153.558 122.507 153.494 122.784 153.451 122.976L152.747 126H150.187L147.707 117.264H150.075L151.083 121.136C151.158 121.403 151.222 121.723 151.275 122.096C151.339 122.469 151.398 122.832 151.451 123.184C151.504 123.525 151.542 123.797 151.563 124H151.627C151.638 123.851 151.659 123.653 151.691 123.408C151.723 123.152 151.76 122.891 151.803 122.624C151.856 122.357 151.899 122.117 151.931 121.904C151.974 121.68 152.006 121.531 152.027 121.456L153.099 117.264H155.723L156.747 121.456C156.79 121.605 156.838 121.845 156.891 122.176C156.955 122.507 157.008 122.843 157.051 123.184C157.104 123.525 157.131 123.797 157.131 124H157.195C157.216 123.819 157.254 123.557 157.307 123.216C157.36 122.864 157.419 122.496 157.483 122.112C157.558 121.728 157.632 121.403 157.707 121.136L158.747 117.264H161.083L158.571 126H155.979L155.307 122.944Z" fill="#313950"/>
<rect x="89" y="42" width="119" height="26" rx="13" fill="#AFEAE4"/>
<circle cx="101" cy="55" r="3" fill="#101828"/>
<path d="M116.072 60L112.782 51.236H112.726C112.744 51.4227 112.758 51.6607 112.768 51.95C112.786 52.2393 112.8 52.5567 112.81 52.902C112.819 53.238 112.824 53.5833 112.824 53.938V60H111.662V50.004H113.524L116.604 58.194H116.66L119.796 50.004H121.644V60H120.398V53.854C120.398 53.5273 120.402 53.2053 120.412 52.888C120.421 52.5613 120.435 52.258 120.454 51.978C120.472 51.6887 120.486 51.446 120.496 51.25H120.44L117.108 60H116.072ZM127.037 52.37C127.952 52.37 128.628 52.5707 129.067 52.972C129.506 53.3733 129.725 54.0127 129.725 54.89V60H128.829L128.591 58.936H128.535C128.32 59.2067 128.096 59.4353 127.863 59.622C127.639 59.7993 127.378 59.93 127.079 60.014C126.79 60.098 126.435 60.14 126.015 60.14C125.567 60.14 125.161 60.0607 124.797 59.902C124.442 59.7433 124.162 59.5007 123.957 59.174C123.752 58.838 123.649 58.418 123.649 57.914C123.649 57.1673 123.943 56.5933 124.531 56.192C125.119 55.7813 126.024 55.5573 127.247 55.52L128.521 55.478V55.03C128.521 54.4047 128.386 53.9707 128.115 53.728C127.844 53.4853 127.462 53.364 126.967 53.364C126.575 53.364 126.202 53.4247 125.847 53.546C125.492 53.658 125.161 53.7887 124.853 53.938L124.475 53.014C124.802 52.8367 125.189 52.6873 125.637 52.566C126.085 52.4353 126.552 52.37 127.037 52.37ZM127.401 56.374C126.468 56.4113 125.819 56.5607 125.455 56.822C125.1 57.0833 124.923 57.452 124.923 57.928C124.923 58.348 125.049 58.656 125.301 58.852C125.562 59.048 125.894 59.146 126.295 59.146C126.93 59.146 127.457 58.9733 127.877 58.628C128.297 58.2733 128.507 57.732 128.507 57.004V56.332L127.401 56.374ZM135.543 52.356C135.683 52.356 135.832 52.3653 135.991 52.384C136.159 52.3933 136.303 52.412 136.425 52.44L136.271 53.574C136.149 53.546 136.014 53.5227 135.865 53.504C135.725 53.4853 135.589 53.476 135.459 53.476C135.169 53.476 134.894 53.5367 134.633 53.658C134.371 53.7793 134.138 53.952 133.933 54.176C133.727 54.3907 133.564 54.652 133.443 54.96C133.331 55.268 133.275 55.6133 133.275 55.996V60H132.043V52.496H133.051L133.191 53.868H133.247C133.405 53.588 133.597 53.336 133.821 53.112C134.045 52.8787 134.301 52.6967 134.591 52.566C134.88 52.426 135.197 52.356 135.543 52.356ZM139.044 54.918C139.044 55.0673 139.034 55.2633 139.016 55.506C139.006 55.7487 138.997 55.9587 138.988 56.136H139.044C139.1 56.0613 139.184 55.954 139.296 55.814C139.408 55.674 139.52 55.534 139.632 55.394C139.753 55.2447 139.856 55.1233 139.94 55.03L142.334 52.496H143.776L140.738 55.702L143.986 60H142.502L139.898 56.5L139.044 57.242V60H137.826V49.36H139.044V54.918ZM148.202 52.356C148.846 52.356 149.397 52.496 149.854 52.776C150.321 53.056 150.676 53.4527 150.918 53.966C151.17 54.47 151.296 55.0627 151.296 55.744V56.486H146.158C146.177 57.3353 146.392 57.984 146.802 58.432C147.222 58.8707 147.806 59.09 148.552 59.09C149.028 59.09 149.448 59.048 149.812 58.964C150.186 58.8707 150.568 58.74 150.96 58.572V59.65C150.578 59.818 150.2 59.9393 149.826 60.014C149.453 60.098 149.01 60.14 148.496 60.14C147.787 60.14 147.157 59.9953 146.606 59.706C146.065 59.4167 145.64 58.9873 145.332 58.418C145.034 57.8393 144.884 57.1347 144.884 56.304C144.884 55.4827 145.02 54.778 145.29 54.19C145.57 53.602 145.958 53.1493 146.452 52.832C146.956 52.5147 147.54 52.356 148.202 52.356ZM148.188 53.364C147.6 53.364 147.134 53.5553 146.788 53.938C146.452 54.3113 146.252 54.834 146.186 55.506H150.008C150.008 55.0767 149.943 54.7033 149.812 54.386C149.682 54.0687 149.481 53.8213 149.21 53.644C148.949 53.4573 148.608 53.364 148.188 53.364ZM155.713 59.132C155.899 59.132 156.091 59.118 156.287 59.09C156.483 59.0527 156.641 59.0153 156.763 58.978V59.916C156.632 59.9813 156.445 60.0327 156.203 60.07C155.96 60.1167 155.727 60.14 155.503 60.14C155.111 60.14 154.747 60.0747 154.411 59.944C154.084 59.804 153.818 59.566 153.613 59.23C153.407 58.894 153.305 58.4227 153.305 57.816V53.448H152.241V52.86L153.319 52.37L153.809 50.774H154.537V52.496H156.707V53.448H154.537V57.788C154.537 58.2453 154.644 58.586 154.859 58.81C155.083 59.0247 155.367 59.132 155.713 59.132ZM167.74 57.326C167.74 57.9233 167.595 58.432 167.306 58.852C167.017 59.2627 166.601 59.58 166.06 59.804C165.528 60.028 164.898 60.14 164.17 60.14C163.797 60.14 163.437 60.1213 163.092 60.084C162.756 60.0467 162.448 59.9953 162.168 59.93C161.888 59.8553 161.641 59.7667 161.426 59.664V58.46C161.762 58.6093 162.177 58.7447 162.672 58.866C163.176 58.9873 163.694 59.048 164.226 59.048C164.721 59.048 165.136 58.9827 165.472 58.852C165.808 58.7213 166.06 58.5347 166.228 58.292C166.396 58.0493 166.48 57.7647 166.48 57.438C166.48 57.1113 166.41 56.836 166.27 56.612C166.13 56.388 165.887 56.1827 165.542 55.996C165.206 55.8 164.735 55.5947 164.128 55.38C163.699 55.2213 163.321 55.0533 162.994 54.876C162.677 54.6893 162.411 54.4793 162.196 54.246C161.981 54.0127 161.818 53.7467 161.706 53.448C161.603 53.1493 161.552 52.804 161.552 52.412C161.552 51.88 161.687 51.4273 161.958 51.054C162.229 50.6713 162.602 50.3773 163.078 50.172C163.563 49.9667 164.119 49.864 164.744 49.864C165.295 49.864 165.799 49.9153 166.256 50.018C166.713 50.1207 167.129 50.256 167.502 50.424L167.11 51.502C166.765 51.3527 166.387 51.2267 165.976 51.124C165.575 51.0213 165.155 50.97 164.716 50.97C164.296 50.97 163.946 51.0307 163.666 51.152C163.386 51.2733 163.176 51.446 163.036 51.67C162.896 51.8847 162.826 52.1367 162.826 52.426C162.826 52.762 162.896 53.042 163.036 53.266C163.176 53.49 163.405 53.6907 163.722 53.868C164.039 54.0453 164.469 54.2367 165.01 54.442C165.598 54.6567 166.093 54.89 166.494 55.142C166.905 55.3847 167.213 55.6787 167.418 56.024C167.633 56.3693 167.74 56.8033 167.74 57.326ZM172.092 59.132C172.278 59.132 172.47 59.118 172.666 59.09C172.862 59.0527 173.02 59.0153 173.142 58.978V59.916C173.011 59.9813 172.824 60.0327 172.582 60.07C172.339 60.1167 172.106 60.14 171.882 60.14C171.49 60.14 171.126 60.0747 170.79 59.944C170.463 59.804 170.197 59.566 169.992 59.23C169.786 58.894 169.684 58.4227 169.684 57.816V53.448H168.62V52.86L169.698 52.37L170.188 50.774H170.916V52.496H173.086V53.448H170.916V57.788C170.916 58.2453 171.023 58.586 171.238 58.81C171.462 59.0247 171.746 59.132 172.092 59.132ZM177.486 52.37C178.401 52.37 179.077 52.5707 179.516 52.972C179.955 53.3733 180.174 54.0127 180.174 54.89V60H179.278L179.04 58.936H178.984C178.769 59.2067 178.545 59.4353 178.312 59.622C178.088 59.7993 177.827 59.93 177.528 60.014C177.239 60.098 176.884 60.14 176.464 60.14C176.016 60.14 175.61 60.0607 175.246 59.902C174.891 59.7433 174.611 59.5007 174.406 59.174C174.201 58.838 174.098 58.418 174.098 57.914C174.098 57.1673 174.392 56.5933 174.98 56.192C175.568 55.7813 176.473 55.5573 177.696 55.52L178.97 55.478V55.03C178.97 54.4047 178.835 53.9707 178.564 53.728C178.293 53.4853 177.911 53.364 177.416 53.364C177.024 53.364 176.651 53.4247 176.296 53.546C175.941 53.658 175.61 53.7887 175.302 53.938L174.924 53.014C175.251 52.8367 175.638 52.6873 176.086 52.566C176.534 52.4353 177.001 52.37 177.486 52.37ZM177.85 56.374C176.917 56.4113 176.268 56.5607 175.904 56.822C175.549 57.0833 175.372 57.452 175.372 57.928C175.372 58.348 175.498 58.656 175.75 58.852C176.011 59.048 176.343 59.146 176.744 59.146C177.379 59.146 177.906 58.9733 178.326 58.628C178.746 58.2733 178.956 57.732 178.956 57.004V56.332L177.85 56.374ZM184.998 59.132C185.184 59.132 185.376 59.118 185.572 59.09C185.768 59.0527 185.926 59.0153 186.048 58.978V59.916C185.917 59.9813 185.73 60.0327 185.488 60.07C185.245 60.1167 185.012 60.14 184.788 60.14C184.396 60.14 184.032 60.0747 183.696 59.944C183.369 59.804 183.103 59.566 182.898 59.23C182.692 58.894 182.59 58.4227 182.59 57.816V53.448H181.526V52.86L182.604 52.37L183.094 50.774H183.822V52.496H185.992V53.448H183.822V57.788C183.822 58.2453 183.929 58.586 184.144 58.81C184.368 59.0247 184.652 59.132 184.998 59.132ZM188.782 52.496V60H187.55V52.496H188.782ZM188.18 49.682C188.367 49.682 188.53 49.7473 188.67 49.878C188.82 49.9993 188.894 50.1953 188.894 50.466C188.894 50.7273 188.82 50.9233 188.67 51.054C188.53 51.1847 188.367 51.25 188.18 51.25C187.975 51.25 187.802 51.1847 187.662 51.054C187.522 50.9233 187.452 50.7273 187.452 50.466C187.452 50.1953 187.522 49.9993 187.662 49.878C187.802 49.7473 187.975 49.682 188.18 49.682ZM194.17 60.14C193.507 60.14 192.914 60.0047 192.392 59.734C191.878 59.4633 191.472 59.0433 191.174 58.474C190.884 57.9047 190.74 57.1767 190.74 56.29C190.74 55.366 190.894 54.6147 191.202 54.036C191.51 53.4573 191.925 53.0327 192.448 52.762C192.98 52.4913 193.582 52.356 194.254 52.356C194.636 52.356 195.005 52.398 195.36 52.482C195.714 52.5567 196.004 52.65 196.228 52.762L195.85 53.784C195.626 53.7 195.364 53.6207 195.066 53.546C194.767 53.4713 194.487 53.434 194.226 53.434C193.722 53.434 193.306 53.5413 192.98 53.756C192.653 53.9707 192.41 54.288 192.252 54.708C192.093 55.128 192.014 55.6507 192.014 56.276C192.014 56.8733 192.093 57.382 192.252 57.802C192.41 58.222 192.648 58.5393 192.966 58.754C193.283 58.9687 193.68 59.076 194.156 59.076C194.566 59.076 194.926 59.034 195.234 58.95C195.551 58.866 195.84 58.7633 196.102 58.642V59.734C195.85 59.8647 195.57 59.9627 195.262 60.028C194.963 60.1027 194.599 60.14 194.17 60.14Z" fill="#101828"/>
<path d="M97 180C103.667 180.333 117.4 178.5 119 168.5C121 156 161.5 129.5 178.5 153C195.5 176.5 207 178.5 214.5 165C222 151.5 243 117.5 252 131.5C261 145.5 269.5 141 272.5 153C275.5 165 286 169 289 161C292 153 303 128 320.5 137" stroke="#101828" stroke-width="4" stroke-linecap="round"/>
<circle cx="272" cy="151" r="6" fill="white" stroke="#006D77" stroke-width="4"/>
<path d="M115.932 218.559C115.752 218.559 115.595 218.546 115.462 218.519C115.329 218.499 115.212 218.476 115.112 218.449V217.379C115.212 217.406 115.319 217.429 115.432 217.449C115.539 217.469 115.655 217.479 115.782 217.479C115.962 217.479 116.115 217.446 116.242 217.379C116.375 217.312 116.475 217.189 116.542 217.009C116.615 216.829 116.652 216.572 116.652 216.239V209.399H118.002V216.209C118.002 216.769 117.915 217.219 117.742 217.559C117.569 217.906 117.325 218.159 117.012 218.319C116.705 218.479 116.345 218.559 115.932 218.559ZM121.701 211.019C122.354 211.019 122.854 211.172 123.201 211.479C123.547 211.779 123.721 212.252 123.721 212.899V216.539H122.791L122.531 215.789H122.491C122.344 215.982 122.194 216.146 122.041 216.279C121.887 216.406 121.711 216.496 121.511 216.549C121.311 216.609 121.071 216.639 120.791 216.639C120.491 216.639 120.221 216.579 119.981 216.459C119.741 216.339 119.551 216.156 119.411 215.909C119.271 215.656 119.201 215.339 119.201 214.959C119.201 214.399 119.394 213.979 119.781 213.699C120.167 213.412 120.747 213.256 121.521 213.229L122.391 213.199V212.929C122.391 212.582 122.317 212.336 122.171 212.189C122.024 212.042 121.824 211.969 121.571 211.969C121.331 211.969 121.087 212.009 120.841 212.089C120.601 212.169 120.364 212.262 120.131 212.369L119.721 211.489C119.994 211.349 120.297 211.236 120.631 211.149C120.964 211.062 121.321 211.019 121.701 211.019ZM121.831 213.999C121.357 214.019 121.027 214.116 120.841 214.289C120.654 214.456 120.561 214.682 120.561 214.969C120.561 215.222 120.624 215.406 120.751 215.519C120.884 215.632 121.057 215.689 121.271 215.689C121.584 215.689 121.851 215.586 122.071 215.379C122.291 215.166 122.401 214.852 122.401 214.439V213.979L121.831 213.999ZM127.976 211.019C128.543 211.019 128.99 211.176 129.316 211.489C129.643 211.802 129.806 212.309 129.806 213.009V216.539H128.476V213.259C128.476 212.852 128.406 212.549 128.266 212.349C128.126 212.142 127.906 212.039 127.606 212.039C127.16 212.039 126.856 212.199 126.696 212.519C126.536 212.832 126.456 213.289 126.456 213.889V216.539H125.126V211.119H126.146L126.336 211.829H126.386C126.506 211.642 126.646 211.489 126.806 211.369C126.966 211.249 127.146 211.162 127.346 211.109C127.546 211.049 127.756 211.019 127.976 211.019Z" fill="#544F77"/>
<path d="M145.166 216.539H143.846V209.399H147.696V210.469H145.166V212.569H147.526V213.639H145.166V216.539ZM150.895 211.019C151.362 211.019 151.762 211.119 152.095 211.319C152.435 211.512 152.698 211.792 152.885 212.159C153.072 212.519 153.165 212.959 153.165 213.479V214.119H149.845C149.858 214.612 149.978 214.996 150.205 215.269C150.438 215.536 150.765 215.669 151.185 215.669C151.518 215.669 151.815 215.636 152.075 215.569C152.335 215.496 152.605 215.392 152.885 215.259V216.269C152.632 216.396 152.368 216.489 152.095 216.549C151.822 216.609 151.485 216.639 151.085 216.639C150.578 216.639 150.128 216.539 149.735 216.339C149.348 216.132 149.045 215.822 148.825 215.409C148.605 214.996 148.495 214.482 148.495 213.869C148.495 213.249 148.595 212.729 148.795 212.309C148.995 211.882 149.275 211.562 149.635 211.349C150.002 211.129 150.422 211.019 150.895 211.019ZM150.915 211.949C150.615 211.949 150.372 212.059 150.185 212.279C150.005 212.492 149.898 212.812 149.865 213.239H151.905C151.905 212.986 151.868 212.762 151.795 212.569C151.722 212.376 151.612 212.226 151.465 212.119C151.325 212.006 151.142 211.949 150.915 211.949ZM155.622 210.739C155.622 210.952 155.615 211.159 155.602 211.359C155.595 211.559 155.585 211.716 155.572 211.829H155.622C155.762 211.602 155.949 211.412 156.182 211.259C156.415 211.099 156.722 211.019 157.102 211.019C157.675 211.019 158.142 211.256 158.502 211.729C158.869 212.202 159.052 212.899 159.052 213.819C159.052 214.439 158.969 214.959 158.802 215.379C158.642 215.799 158.412 216.116 158.112 216.329C157.812 216.536 157.462 216.639 157.062 216.639C156.689 216.639 156.389 216.566 156.162 216.419C155.942 216.272 155.762 216.102 155.622 215.909H155.532L155.312 216.539H154.302V208.939H155.622V210.739ZM156.682 212.039C156.429 212.039 156.225 212.099 156.072 212.219C155.919 212.339 155.805 212.522 155.732 212.769C155.665 213.016 155.632 213.329 155.632 213.709V213.819C155.632 214.399 155.709 214.842 155.862 215.149C156.015 215.456 156.299 215.609 156.712 215.609C157.032 215.609 157.275 215.456 157.442 215.149C157.615 214.836 157.702 214.389 157.702 213.809C157.702 213.222 157.615 212.782 157.442 212.489C157.275 212.189 157.022 212.039 156.682 212.039Z" fill="#544F77"/>
<path d="M173.636 216.539L171.896 210.689H171.856C171.863 210.822 171.873 211.012 171.886 211.259C171.9 211.499 171.91 211.762 171.916 212.049C171.93 212.329 171.936 212.592 171.936 212.839V216.539H170.736V209.399H172.576L174.276 215.009H174.306L176.036 209.399H177.886V216.539H176.626V212.779C176.626 212.552 176.63 212.306 176.636 212.039C176.643 211.766 176.653 211.509 176.666 211.269C176.68 211.022 176.69 210.832 176.696 210.699H176.656L174.866 216.539H173.636ZM181.615 211.019C182.268 211.019 182.768 211.172 183.115 211.479C183.461 211.779 183.635 212.252 183.635 212.899V216.539H182.705L182.445 215.789H182.405C182.258 215.982 182.108 216.146 181.955 216.279C181.801 216.406 181.625 216.496 181.425 216.549C181.225 216.609 180.985 216.639 180.705 216.639C180.405 216.639 180.135 216.579 179.895 216.459C179.655 216.339 179.465 216.156 179.325 215.909C179.185 215.656 179.115 215.339 179.115 214.959C179.115 214.399 179.308 213.979 179.695 213.699C180.081 213.412 180.661 213.256 181.435 213.229L182.305 213.199V212.929C182.305 212.582 182.231 212.336 182.085 212.189C181.938 212.042 181.738 211.969 181.485 211.969C181.245 211.969 181.001 212.009 180.755 212.089C180.515 212.169 180.278 212.262 180.045 212.369L179.635 211.489C179.908 211.349 180.211 211.236 180.545 211.149C180.878 211.062 181.235 211.019 181.615 211.019ZM181.745 213.999C181.271 214.019 180.941 214.116 180.755 214.289C180.568 214.456 180.475 214.682 180.475 214.969C180.475 215.222 180.538 215.406 180.665 215.519C180.798 215.632 180.971 215.689 181.185 215.689C181.498 215.689 181.765 215.586 181.985 215.379C182.205 215.166 182.315 214.852 182.315 214.439V213.979L181.745 213.999ZM187.81 211.019C187.904 211.019 188 211.022 188.1 211.029C188.2 211.036 188.284 211.049 188.35 211.069L188.23 212.239C188.164 212.226 188.084 212.216 187.99 212.209C187.904 212.196 187.81 212.189 187.71 212.189C187.544 212.189 187.38 212.222 187.22 212.289C187.06 212.349 186.917 212.442 186.79 212.569C186.664 212.689 186.56 212.846 186.48 213.039C186.407 213.232 186.37 213.462 186.37 213.729V216.539H185.04V211.119H186.06L186.24 212.059H186.31C186.41 211.866 186.534 211.692 186.68 211.539C186.834 211.379 187.004 211.252 187.19 211.159C187.384 211.066 187.59 211.019 187.81 211.019Z" fill="#544F77"/>
<path d="M205.966 216.539L205.416 214.649H202.976L202.426 216.539H200.986L203.386 209.369H204.996L207.406 216.539H205.966ZM204.526 211.709C204.5 211.602 204.463 211.476 204.416 211.329C204.376 211.176 204.336 211.019 204.296 210.859C204.263 210.699 204.23 210.549 204.196 210.409C204.17 210.569 204.136 210.729 204.096 210.889C204.056 211.042 204.016 211.189 203.976 211.329C203.943 211.469 203.91 211.596 203.876 211.709L203.316 213.549H205.096L204.526 211.709ZM210.922 211.019C211.509 211.019 211.979 211.256 212.332 211.729C212.692 212.196 212.872 212.892 212.872 213.819C212.872 214.432 212.789 214.949 212.622 215.369C212.456 215.789 212.222 216.106 211.922 216.319C211.622 216.532 211.276 216.639 210.882 216.639C210.636 216.639 210.419 216.606 210.232 216.539C210.052 216.466 209.899 216.376 209.772 216.269C209.646 216.156 209.539 216.036 209.452 215.909H209.382C209.402 216.029 209.419 216.166 209.432 216.319C209.446 216.466 209.452 216.606 209.452 216.739V218.939H208.122V211.119H209.202L209.382 211.839H209.452C209.546 211.686 209.656 211.549 209.782 211.429C209.916 211.302 210.076 211.202 210.262 211.129C210.449 211.056 210.669 211.019 210.922 211.019ZM210.502 212.039C210.249 212.039 210.042 212.099 209.882 212.219C209.729 212.332 209.619 212.509 209.552 212.749C209.486 212.989 209.452 213.289 209.452 213.649V213.809C209.452 214.196 209.482 214.522 209.542 214.789C209.609 215.056 209.719 215.259 209.872 215.399C210.032 215.539 210.249 215.609 210.522 215.609C210.749 215.609 210.936 215.536 211.082 215.389C211.229 215.242 211.339 215.036 211.412 214.769C211.486 214.496 211.522 214.172 211.522 213.799C211.522 213.239 211.436 212.806 211.262 212.499C211.096 212.192 210.842 212.039 210.502 212.039ZM216.81 211.019C216.904 211.019 217 211.022 217.1 211.029C217.2 211.036 217.284 211.049 217.35 211.069L217.23 212.239C217.164 212.226 217.084 212.216 216.99 212.209C216.904 212.196 216.81 212.189 216.71 212.189C216.544 212.189 216.38 212.222 216.22 212.289C216.06 212.349 215.917 212.442 215.79 212.569C215.664 212.689 215.56 212.846 215.48 213.039C215.407 213.232 215.37 213.462 215.37 213.729V216.539H214.04V211.119H215.06L215.24 212.059H215.31C215.41 211.866 215.534 211.692 215.68 211.539C215.834 211.379 216.004 211.252 216.19 211.159C216.384 211.066 216.59 211.019 216.81 211.019Z" fill="#544F77"/>
<path d="M230.533 216.539L228.793 210.689H228.753C228.76 210.822 228.77 211.012 228.783 211.259C228.796 211.499 228.806 211.762 228.813 212.049C228.826 212.329 228.833 212.592 228.833 212.839V216.539H227.633V209.399H229.473L231.173 215.009H231.203L232.933 209.399H234.783V216.539H233.523V212.779C233.523 212.552 233.526 212.306 233.533 212.039C233.54 211.766 233.55 211.509 233.563 211.269C233.576 211.022 233.586 210.832 233.593 210.699H233.553L231.763 216.539H230.533ZM238.511 211.019C239.164 211.019 239.664 211.172 240.011 211.479C240.358 211.779 240.531 212.252 240.531 212.899V216.539H239.601L239.341 215.789H239.301C239.154 215.982 239.004 216.146 238.851 216.279C238.698 216.406 238.521 216.496 238.321 216.549C238.121 216.609 237.881 216.639 237.601 216.639C237.301 216.639 237.031 216.579 236.791 216.459C236.551 216.339 236.361 216.156 236.221 215.909C236.081 215.656 236.011 215.339 236.011 214.959C236.011 214.399 236.204 213.979 236.591 213.699C236.978 213.412 237.558 213.256 238.331 213.229L239.201 213.199V212.929C239.201 212.582 239.128 212.336 238.981 212.189C238.834 212.042 238.634 211.969 238.381 211.969C238.141 211.969 237.898 212.009 237.651 212.089C237.411 212.169 237.174 212.262 236.941 212.369L236.531 211.489C236.804 211.349 237.108 211.236 237.441 211.149C237.774 211.062 238.131 211.019 238.511 211.019ZM238.641 213.999C238.168 214.019 237.838 214.116 237.651 214.289C237.464 214.456 237.371 214.682 237.371 214.969C237.371 215.222 237.434 215.406 237.561 215.519C237.694 215.632 237.868 215.689 238.081 215.689C238.394 215.689 238.661 215.586 238.881 215.379C239.101 215.166 239.211 214.852 239.211 214.439V213.979L238.641 213.999ZM241.217 211.119H242.637L243.607 214.179C243.653 214.306 243.69 214.432 243.717 214.559C243.75 214.686 243.777 214.812 243.797 214.939C243.823 215.066 243.843 215.192 243.857 215.319H243.887C243.913 215.152 243.947 214.969 243.987 214.769C244.033 214.569 244.087 214.372 244.147 214.179L245.097 211.119H246.497L244.347 217.249C244.22 217.609 244.06 217.916 243.867 218.169C243.68 218.422 243.45 218.612 243.177 218.739C242.91 218.872 242.59 218.939 242.217 218.939C242.063 218.939 241.927 218.929 241.807 218.909C241.693 218.896 241.593 218.879 241.507 218.859V217.859C241.573 217.872 241.657 217.886 241.757 217.899C241.857 217.912 241.96 217.919 242.067 217.919C242.26 217.919 242.423 217.876 242.557 217.789C242.697 217.709 242.813 217.596 242.907 217.449C243 217.309 243.07 217.146 243.117 216.959L243.257 216.519L241.217 211.119Z" fill="#544F77"/>
<rect x="256" y="206" width="24" height="16" rx="6" fill="#C5E0E8"/>
<path d="M260.936 219.02C260.756 219.02 260.599 219.007 260.466 218.98C260.333 218.96 260.216 218.937 260.116 218.91V217.84C260.216 217.867 260.323 217.89 260.436 217.91C260.543 217.93 260.659 217.94 260.786 217.94C260.966 217.94 261.119 217.907 261.246 217.84C261.379 217.773 261.479 217.65 261.546 217.47C261.619 217.29 261.656 217.033 261.656 216.7V209.86H263.006V216.67C263.006 217.23 262.919 217.68 262.746 218.02C262.573 218.367 262.329 218.62 262.016 218.78C261.709 218.94 261.349 219.02 260.936 219.02ZM269.174 211.58V217H268.154L267.984 216.3H267.914C267.808 216.487 267.671 216.64 267.504 216.76C267.338 216.873 267.154 216.957 266.954 217.01C266.754 217.07 266.548 217.1 266.334 217.1C265.961 217.1 265.638 217.03 265.364 216.89C265.091 216.75 264.878 216.537 264.724 216.25C264.578 215.957 264.504 215.58 264.504 215.12V211.58H265.834V214.87C265.834 215.27 265.901 215.573 266.034 215.78C266.174 215.98 266.394 216.08 266.694 216.08C266.994 216.08 267.228 216.01 267.394 215.87C267.568 215.723 267.688 215.513 267.754 215.24C267.821 214.967 267.854 214.63 267.854 214.23V211.58H269.174ZM273.478 211.48C274.045 211.48 274.492 211.637 274.818 211.95C275.145 212.263 275.308 212.77 275.308 213.47V217H273.978V213.72C273.978 213.313 273.908 213.01 273.768 212.81C273.628 212.603 273.408 212.5 273.108 212.5C272.662 212.5 272.358 212.66 272.198 212.98C272.038 213.293 271.958 213.75 271.958 214.35V217H270.628V211.58H271.648L271.838 212.29H271.888C272.008 212.103 272.148 211.95 272.308 211.83C272.468 211.71 272.648 211.623 272.848 211.57C273.048 211.51 273.258 211.48 273.478 211.48Z" fill="#101828"/>
<path d="M292.754 218.559C292.574 218.559 292.418 218.546 292.284 218.519C292.151 218.499 292.034 218.476 291.934 218.449V217.379C292.034 217.406 292.141 217.429 292.254 217.449C292.361 217.469 292.478 217.479 292.604 217.479C292.784 217.479 292.938 217.446 293.064 217.379C293.198 217.312 293.298 217.189 293.364 217.009C293.438 216.829 293.474 216.572 293.474 216.239V209.399H294.824V216.209C294.824 216.769 294.738 217.219 294.564 217.559C294.391 217.906 294.148 218.159 293.834 218.319C293.528 218.479 293.168 218.559 292.754 218.559ZM300.993 211.119V216.539H299.973L299.803 215.839H299.733C299.626 216.026 299.489 216.179 299.323 216.299C299.156 216.412 298.973 216.496 298.773 216.549C298.573 216.609 298.366 216.639 298.153 216.639C297.779 216.639 297.456 216.569 297.183 216.429C296.909 216.289 296.696 216.076 296.543 215.789C296.396 215.496 296.323 215.119 296.323 214.659V211.119H297.653V214.409C297.653 214.809 297.719 215.112 297.853 215.319C297.993 215.519 298.213 215.619 298.513 215.619C298.813 215.619 299.046 215.549 299.213 215.409C299.386 215.262 299.506 215.052 299.573 214.779C299.639 214.506 299.673 214.169 299.673 213.769V211.119H300.993ZM303.777 216.539H302.447V208.939H303.777V216.539Z" fill="#544F77"/>
<defs>
<filter id="filter0_d_44_296" x="0" y="0" width="426" height="354" filterUnits="userSpaceOnUse" color-interpolation-filters="sRGB">
<feFlood flood-opacity="0" result="BackgroundImageFix"/>
<feColorMatrix in="SourceAlpha" type="matrix" values="0 0 0 0 0 0 0 0 0 0 0 0 0 0 0 0 0 0 127 0" result="hardAlpha"/>
<feOffset dy="47"/>
<feGaussianBlur stdDeviation="32.5"/>
<feColorMatrix type="matrix" values="0 0 0 0 0.0823529 0 0 0 0 0.109804 0 0 0 0 0.14902 0 0 0 0.1 0"/>
<feBlend mode="normal" in2="BackgroundImageFix" result="effect1_dropShadow_44_296"/>
<feBlend mode="normal" in="SourceGraphic" in2="effect1_dropShadow_44_296" result="shape"/>
</filter>
</defs>
</svg>
